<svg width="24" height="10" fill="none" xmlns="http://www.w3.org/2000/svg"><path fill-rule="evenodd" clip-rule="evenodd" d="M4.385 1.29c-.281.337-.731.603-1.181.565-.056-.456.164-.942.422-1.241C3.907.266 4.399.019 4.798 0c.047.476-.136.942-.413 1.29Zm.408.656c-.396-.023-.758.12-1.05.237-.188.075-.348.139-.469.139-.136 0-.302-.067-.488-.142-.244-.099-.523-.211-.815-.206-.67.01-1.294.395-1.636 1.009C-.368 4.21.152 6.028.832 7.027c.333.494.731 1.037 1.256 1.018.231-.01.397-.08.57-.155.197-.085.403-.174.724-.174.31 0 .507.087.695.17.18.078.352.154.608.15.544-.01.886-.496 1.22-.99.358-.531.516-1.05.54-1.128l.003-.01-.013-.006c-.12-.055-1.038-.482-1.047-1.625-.008-.96.728-1.446.844-1.523a.355.355 0 0 0 .014-.009c-.468-.704-1.2-.78-1.453-.8Zm3.765 6.037V.566H11.3c1.416 0 2.405.99 2.405 2.436s-1.008 2.445-2.442 2.445h-1.57v2.536H8.557Zm1.134-6.446H11c.985 0 1.547.532 1.547 1.47 0 .937-.563 1.474-1.552 1.474H9.692V1.537Zm7.759 5.556c-.3.58-.961.947-1.674.947-1.055 0-1.79-.638-1.79-1.599 0-.951.712-1.498 2.03-1.579l1.415-.086v-.409c0-.604-.389-.932-1.083-.932-.572 0-.989.3-1.073.756h-1.022c.032-.96.923-1.66 2.128-1.66 1.299 0 2.142.69 2.142 1.76v3.692h-1.05v-.89h-.023Zm-1.37.067c-.604 0-.988-.295-.988-.747 0-.466.37-.737 1.078-.78l1.261-.081v.419c0 .694-.581 1.189-1.35 1.189Zm5.927 1.113C21.553 9.572 21.032 10 19.926 10a3.08 3.08 0 0 1-.431-.029v-.89c.07.01.244.02.333.02.501 0 .783-.214.956-.77l.103-.33-1.922-5.399h1.186l1.336 4.382h.024l1.336-4.382H24l-1.992 5.671Z" fill="#979899"/></svg>