<svg width="18" height="16" fill="none" xmlns="http://www.w3.org/2000/svg"><path d="M17.182 7.997H3.272V3.523a1.554 1.554 0 0 1 .226-.82 1.6 1.6 0 0 1 .626-.587c.287-.152.614-.217.939-.185a2.736 2.736 0 0 0-.068 1.517c.12.502.381.961.753 1.327l.868.85a.82.82 0 0 0 .578.234.834.834 0 0 0 .579-.235l2.892-2.829a.799.799 0 0 0 .24-.566.784.784 0 0 0-.24-.566L9.797.815A2.905 2.905 0 0 0 6.091.54a3.334 3.334 0 0 0-3.033.34 3.22 3.22 0 0 0-1.046 1.148 3.14 3.14 0 0 0-.376 1.494v4.474H.818a.828.828 0 0 0-.578.234.792.792 0 0 0 0 1.132c.153.15.361.235.578.235h.818v2.4c.002.495.16.978.453 1.381.293.404.707.709 1.184.873v.948c0 .212.086.416.24.566a.827.827 0 0 0 1.156 0 .791.791 0 0 0 .24-.566v-.8h8.182v.8c0 .212.086.416.24.566a.828.828 0 0 0 1.157 0 .791.791 0 0 0 .24-.566v-.948c.476-.165.89-.47 1.183-.873a2.36 2.36 0 0 0 .453-1.38V9.598h.818a.828.828 0 0 0 .578-.235.792.792 0 0 0 0-1.132.828.828 0 0 0-.578-.234ZM6.905 1.947a1.243 1.243 0 0 1 1.735 0l.29.282-1.736 1.698-.289-.283a1.188 1.188 0 0 1-.359-.849c0-.318.13-.624.359-.849Zm7.822 10.052a.792.792 0 0 1-.24.565.828.828 0 0 1-.578.235H4.091a.828.828 0 0 1-.578-.235.792.792 0 0 1-.24-.566v-2.4h11.454v2.4Z" fill="#0A121F"/></svg>