<svg width="22" height="13" fill="none" xmlns="http://www.w3.org/2000/svg"><path fill-rule="evenodd" clip-rule="evenodd" d="M11 11.447A6.75 6.75 0 0 1 6.672 13C2.987 13 0 10.09 0 6.5S2.987 0 6.672 0A6.75 6.75 0 0 1 11 1.553 6.75 6.75 0 0 1 15.328 0C19.013 0 22 2.91 22 6.5S19.013 13 15.328 13A6.75 6.75 0 0 1 11 11.447Z" fill="#979899"/><path fill-rule="evenodd" clip-rule="evenodd" d="M11 11.447c1.435-1.192 2.344-2.966 2.344-4.947 0-1.981-.91-3.755-2.344-4.947A6.75 6.75 0 0 1 15.328 0C19.013 0 22 2.91 22 6.5S19.013 13 15.328 13A6.75 6.75 0 0 1 11 11.447Z" fill="#ABA8A8"/><path fill-rule="evenodd" clip-rule="evenodd" d="M11 11.447c1.435-1.192 2.344-2.966 2.344-4.947 0-1.981-.91-3.755-2.344-4.947C9.565 2.745 8.656 4.519 8.656 6.5c0 1.981.91 3.755 2.344 4.947Z" fill="#979899"/></svg>