<svg width="19" height="11" fill="none" xmlns="http://www.w3.org/2000/svg"><path fill-rule="evenodd" clip-rule="evenodd" d="M17.465 2.446h-.84v-.682C16.625.44 15.602 0 15.041 0H3.958c-.92 0-1.67.792-1.67 1.764v.682h-.753C.69 2.446 0 3.174 0 4.068v5.31C0 10.272.689 11 1.535 11h15.93C18.31 11 19 10.272 19 9.378v-5.31c0-.894-.689-1.622-1.535-1.622ZM1.113 9.378c0 .246.19.446.422.446h1.987c.233 0 .422-.2.422-.446v-5.31a.435.435 0 0 0-.422-.446H1.535c-.232 0-.422.2-.422.446v5.31Zm13.929-8.202H3.958c-.307 0-.556.264-.556.588v.682h.12c.847 0 1.535.728 1.535 1.622v2.067h8.886V4.068c0-.894.688-1.622 1.535-1.622h.12v-.682c0-.324-.25-.588-.556-.588ZM5.057 7.311v2.067c0 .155-.02.304-.06.446h9.005a1.703 1.703 0 0 1-.06-.446V7.31H5.058Zm9.999-3.243v5.31c0 .246.19.446.422.446h1.987c.232 0 .422-.2.422-.446v-5.31a.435.435 0 0 0-.422-.446h-1.987c-.233 0-.422.2-.422.446Z" fill="#0A121F"/></svg>