<svg width="20" height="20" fill="none" xmlns="http://www.w3.org/2000/svg"><path d="M19.966 7.562a1.045 1.045 0 0 0-.33-.484.973.973 0 0 0-.528-.217l-5.683-.867L10.88.59a1.03 1.03 0 0 0-.369-.43.966.966 0 0 0-1.06 0 1.03 1.03 0 0 0-.369.43L6.535 5.983l-5.683.878a.978.978 0 0 0-.501.235c-.143.125-.25.29-.307.476a1.092 1.092 0 0 0-.014.559c.044.184.135.352.263.486l4.125 4.181-.999 5.938c-.04.197-.025.402.043.59.068.188.187.352.342.471a.962.962 0 0 0 1.083.067l5.093-2.79 5.093 2.79c.14.083.299.127.46.126a.97.97 0 0 0 .589-.198 1.04 1.04 0 0 0 .345-.462c.071-.185.09-.388.054-.584l-.998-5.937 4.124-4.181a1.05 1.05 0 0 0 .307-.485c.057-.189.061-.39.012-.581Zm-6.141 4.18a1.053 1.053 0 0 0-.253.423c-.05.16-.063.331-.037.498l.72 4.39-3.756-2.09a1.02 1.02 0 0 0-.938 0l-3.755 2.09.719-4.39a1.092 1.092 0 0 0-.037-.498 1.053 1.053 0 0 0-.253-.422L3.24 8.607l4.205-.638a.974.974 0 0 0 .447-.188c.133-.1.24-.233.311-.387L9.98 3.412l1.877 3.993c.072.153.18.286.312.386.132.1.286.165.447.189l4.205.637-2.996 3.126Z" fill="#F85A47"/><path d="M13.825 11.743a1.053 1.053 0 0 0-.253.422c-.05.16-.063.331-.037.498l.72 4.39-3.756-2.09a1.02 1.02 0 0 0-.938 0l-3.755 2.09.719-4.39a1.092 1.092 0 0 0-.037-.498 1.053 1.053 0 0 0-.253-.422L3.24 8.607l4.205-.638a.974.974 0 0 0 .447-.188c.133-.1.24-.233.311-.387L9.98 3.412l1.877 3.993c.072.153.18.286.312.386.132.1.286.165.447.189l4.205.637-2.996 3.126Z" fill="#F85A47"/></svg>