<svg width="24" height="8" fill="none" xmlns="http://www.w3.org/2000/svg"><path fill-rule="evenodd" clip-rule="evenodd" d="M6 7.938H3.923L2.366 1.732c-.074-.286-.231-.538-.462-.657A6.564 6.564 0 0 0 0 .418v-.24h3.346c.462 0 .808.36.866.777L5.02 5.43 7.096.18h2.02L6 7.938Zm4.27 0H8.308L9.923.178h1.962l-1.615 7.76Zm4.153-5.61c.058-.418.404-.656.808-.656a3.52 3.52 0 0 1 1.904.357L17.48.36A4.78 4.78 0 0 0 15.693 0c-1.904 0-3.29 1.075-3.29 2.566 0 1.135.982 1.73 1.675 2.09.749.358 1.038.596.98.954 0 .537-.577.776-1.154.776-.692 0-1.385-.179-2.019-.478L11.54 7.58a5.448 5.448 0 0 0 2.135.418c2.134.059 3.46-1.015 3.46-2.627 0-2.029-2.711-2.148-2.711-3.043ZM24 7.938 22.442.178H20.77a.871.871 0 0 0-.809.598l-2.884 7.162h2.02l.403-1.134h2.48l.232 1.134H24Zm-2.942-5.67.576 2.925H20.02l1.04-2.925Z" fill="#979899"/></svg>