<svg xmlns="http://www.w3.org/2000/svg" width="14" height="14" fill="none"><path fill="#F85A47" d="M6.986 0a7.027 7.027 0 0 0-1.5.168H5.4a7.015 7.015 0 0 0-3.876 2.455 6.991 6.991 0 0 0-.045 8.659 7.015 7.015 0 0 0 3.851 2.494h.098c.509.135 1.031.21 1.557.224a7.02 7.02 0 0 0 4.96-2.05 6.993 6.993 0 0 0 0-9.9A7.02 7.02 0 0 0 6.986 0ZM5.583 12.418a5.611 5.611 0 0 1-3.022-1.995 5.593 5.593 0 0 1 0-6.846 5.612 5.612 0 0 1 3.022-1.995 5.612 5.612 0 0 1 3.023 1.995 5.593 5.593 0 0 1 0 6.846 5.611 5.611 0 0 1-3.023 1.995Zm3.178-.112A7.002 7.002 0 0 0 11.2 7a6.989 6.989 0 0 0-2.44-5.306 5.61 5.61 0 0 1 2.765 2.04 5.593 5.593 0 0 1-2.764 8.572Z"/></svg>