<svg width="16" height="18" fill="none" xmlns="http://www.w3.org/2000/svg"><path d="M15.111 5.415 9.778.687A2.65 2.65 0 0 0 8 0a2.65 2.65 0 0 0-1.778.687L.89 5.415A2.723 2.723 0 0 0 0 7.447v7.856c0 .715.281 1.401.781 1.907S1.96 18 2.667 18h10.666c.708 0 1.386-.284 1.886-.79S16 16.018 16 15.303V7.438a2.724 2.724 0 0 0-.889-2.023ZM9.778 16.202H6.222v-4.495c0-.238.094-.466.26-.635a.884.884 0 0 1 .63-.263h1.777c.236 0 .462.094.628.263.167.169.26.397.26.636v4.494Zm4.444-.899a.904.904 0 0 1-.26.636.884.884 0 0 1-.629.263h-1.777v-4.495c0-.715-.281-1.4-.781-1.906a2.652 2.652 0 0 0-1.886-.79H7.11c-.707 0-1.385.284-1.885.79a2.712 2.712 0 0 0-.782 1.906v4.495H2.667a.884.884 0 0 1-.629-.263.904.904 0 0 1-.26-.636V7.438a.908.908 0 0 1 .302-.675l5.333-4.719a.883.883 0 0 1 1.174 0l5.333 4.72a.898.898 0 0 1 .302.674v7.865Z" fill="#0A121F"/></svg>