<svg width="16" height="16" fill="none" xmlns="http://www.w3.org/2000/svg"><path d="M11.81 7.718a2.368 2.368 0 0 0 1.713-.703l2.246-2.26a.801.801 0 0 0-.563-1.362.79.79 0 0 0-.564.236l-2.27 2.252a.793.793 0 0 1-1.126 0l2.81-2.819a.803.803 0 0 0-.564-1.369.793.793 0 0 0-.564.235l-2.801 2.827a.801.801 0 0 1 0-1.126l2.246-2.26a.801.801 0 0 0 .173-.874.801.801 0 0 0-.737-.495.793.793 0 0 0-.563.235L9 2.495a2.404 2.404 0 0 0 0 3.386L7.97 6.911 1.406.283l-.08-.048a.563.563 0 0 0-.134-.088L1.049.091.953.027H.74a.45.45 0 0 0-.143 0A.554.554 0 0 0 .461.1L.334.18H.28L.23.259a.8.8 0 0 0-.087.136.858.858 0 0 0-.056.151v.088a8.838 8.838 0 0 0 .36 4.023 8.794 8.794 0 0 0 2.108 3.436l2.095 2.1-4.293 4.313a.799.799 0 0 0-.173.874.798.798 0 0 0 1.3.26l4.817-4.775 3.833-3.858c.443.45 1.045.706 1.674.711ZM5.738 9.171 3.652 7.063a7.255 7.255 0 0 1-2.032-4.32l5.245 5.27L5.74 9.171Zm4.951.456a.797.797 0 0 0-1.367.564c0 .213.083.418.233.57l5 5.031a.79.79 0 0 0 .555.208.788.788 0 0 0 .737-.492.803.803 0 0 0-.174-.874L10.69 9.627Z" fill="#0A121F"/></svg>