<svg xmlns="http://www.w3.org/2000/svg" width="34" height="24" fill="none"><rect width="33" height="23" x=".5" y=".5" fill="#fff" stroke="#D9D9D9" rx="3.5"/><path fill="#ED0006" fill-rule="evenodd" d="M17 17.447A6.75 6.75 0 0 1 12.672 19C8.987 19 6 16.09 6 12.5S8.987 6 12.672 6A6.75 6.75 0 0 1 17 7.553 6.75 6.75 0 0 1 21.328 6C25.013 6 28 8.91 28 12.5S25.013 19 21.328 19A6.75 6.75 0 0 1 17 17.447Z" clip-rule="evenodd"/><path fill="#F9A000" fill-rule="evenodd" d="M17 17.447c1.435-1.192 2.344-2.966 2.344-4.947 0-1.981-.91-3.755-2.344-4.947A6.75 6.75 0 0 1 21.328 6C25.013 6 28 8.91 28 12.5S25.013 19 21.328 19A6.75 6.75 0 0 1 17 17.447Z" clip-rule="evenodd"/><path fill="#FF5E00" fill-rule="evenodd" d="M17 17.447c1.435-1.192 2.345-2.966 2.345-4.947 0-1.981-.91-3.755-2.345-4.947-1.434 1.192-2.344 2.966-2.344 4.947 0 1.981.91 3.755 2.344 4.947Z" clip-rule="evenodd"/></svg>