<svg xmlns="http://www.w3.org/2000/svg" width="14" height="14" fill="none"><path fill="#F85A47" d="M13.725 7.703a.69.69 0 0 0-.734-.1 5.498 5.498 0 0 1-2.358.525A5.62 5.62 0 0 1 6.62 6.42a5.952 5.952 0 0 1-1.68-4.122c.004-.485.062-.968.175-1.44a.74.74 0 0 0-.233-.687.691.691 0 0 0-.697-.126 7.133 7.133 0 0 0-2.77 2.284A7.415 7.415 0 0 0 .066 5.708a7.495 7.495 0 0 0 .412 3.628 7.296 7.296 0 0 0 2.069 2.968 7.01 7.01 0 0 0 3.207 1.565c1.18.233 2.4.154 3.543-.23a7.072 7.072 0 0 0 2.99-1.968 7.364 7.364 0 0 0 1.69-3.212.74.74 0 0 0-.015-.417.72.72 0 0 0-.237-.339ZM7.08 12.52a5.587 5.587 0 0 1-3.272-1.093 5.847 5.847 0 0 1-2.063-2.832 6.02 6.02 0 0 1-.101-3.538A5.873 5.873 0 0 1 3.54 2.104v.194A7.414 7.414 0 0 0 5.62 7.457a7 7 0 0 0 5.013 2.14c.494.001.987-.052 1.47-.159a5.771 5.771 0 0 1-2.091 2.274 5.553 5.553 0 0 1-2.932.835v-.028Z"/></svg>