<svg width="18" height="18" fill="none" xmlns="http://www.w3.org/2000/svg"><path d="M17.683.74a.858.858 0 0 0-.72-.172 2.315 2.315 0 0 1-1.886-.403.857.857 0 0 0-1.011 0 2.315 2.315 0 0 1-1.886.403.857.857 0 0 0-1.037.84v2.837a3.967 3.967 0 0 0 1.577 3.17l1.346.995a.857.857 0 0 0 1.011 0l1.346-.994A3.969 3.969 0 0 0 18 4.245V1.408a.857.857 0 0 0-.317-.669Zm-1.397 3.505a2.246 2.246 0 0 1-.857 1.79l-.858.618-.857-.617a2.246 2.246 0 0 1-.857-1.791V2.333a4.123 4.123 0 0 0 1.714-.462 4.124 4.124 0 0 0 1.715.462v1.912Zm-1.715 6.042a.857.857 0 0 0-.857.857v.334L12.43 10.21a2.375 2.375 0 0 0-3.369 0l-.6.6-2.109-2.135a2.443 2.443 0 0 0-3.368 0L1.714 9.944v-4.8a.857.857 0 0 1 .857-.857h6a.857.857 0 0 0 0-1.714h-6A2.572 2.572 0 0 0 0 5.144V15.43A2.57 2.57 0 0 0 2.571 18h10.286a2.571 2.571 0 0 0 2.572-2.571v-4.285a.857.857 0 0 0-.858-.857Zm-12 5.999a.857.857 0 0 1-.857-.857v-3.06L4.2 9.86a.677.677 0 0 1 .934 0l2.717 2.716 3.72 3.71h-9Zm11.143-.857a.858.858 0 0 1-.154.454l-3.866-3.865.6-.6a.668.668 0 0 1 .943 0l2.477 2.485v1.526Z" fill="#0A121F"/></svg>