<svg width="13" height="16" fill="none" xmlns="http://www.w3.org/2000/svg"><path d="M12.7 1.32a.818.818 0 0 0-.683-.161 6.598 6.598 0 0 1-2.634.007A6.552 6.552 0 0 1 6.963.143a.821.821 0 0 0-.926 0c-.728.5-1.551.848-2.42 1.023a6.598 6.598 0 0 1-2.634-.007.825.825 0 0 0-.682.16.802.802 0 0 0-.301.624v5.962c0 1.148.277 2.278.81 3.299a7.235 7.235 0 0 0 2.253 2.567l2.966 2.08a.821.821 0 0 0 .942 0l2.966-2.08a7.235 7.235 0 0 0 2.253-2.567c.533-1.02.81-2.151.81-3.299V1.943a.79.79 0 0 0-.3-.624Zm-1.325 6.585c0 .892-.215 1.772-.63 2.565a5.626 5.626 0 0 1-1.75 1.997L6.5 14.219l-2.494-1.752a5.627 5.627 0 0 1-1.752-1.997 5.534 5.534 0 0 1-.629-2.565V2.864A8.225 8.225 0 0 0 6.5 1.75a8.225 8.225 0 0 0 4.875 1.113v5.041ZM7.751 6.073l-2.185 2.16-.723-.72a.822.822 0 0 0-1.154 0 .797.797 0 0 0 0 1.136l1.3 1.28a.815.815 0 0 0 .577.237.824.824 0 0 0 .577-.236L8.938 7.2a.797.797 0 0 0 0-1.135.822.822 0 0 0-1.154 0l-.033.008Z" fill="#0A121F"/></svg>