<svg xmlns="http://www.w3.org/2000/svg" width="14" height="14" fill="none"><path fill="#fff" d="M2.1 7a.7.7 0 0 0-.7-.7H.7a.7.7 0 1 0 0 1.4h.7a.7.7 0 0 0 .7-.7Zm.448 3.5-.497.497a.7.7 0 0 0 0 .987.7.7 0 0 0 .987 0l.497-.497a.7.7 0 0 0-.987-.987ZM7 2.1a.7.7 0 0 0 .7-.7V.7a.7.7 0 1 0-1.4 0v.7a.7.7 0 0 0 .7.7Zm3.962 1.638a.7.7 0 0 0 .49-.203l.497-.497a.7.7 0 1 0-.987-.987l-.462.497a.7.7 0 0 0 0 .987.7.7 0 0 0 .462.203Zm-8.4-.203a.7.7 0 0 0 1.19-.494.7.7 0 0 0-.203-.493l-.497-.497a.703.703 0 0 0-1.001.987l.511.497ZM13.3 6.3h-.7a.7.7 0 1 0 0 1.4h.7a.7.7 0 1 0 0-1.4Zm-1.848 4.2a.7.7 0 0 0-.952.952l.497.497a.7.7 0 0 0 .987 0 .7.7 0 0 0 0-.987l-.532-.462ZM7 3.15A3.85 3.85 0 1 0 10.85 7 3.857 3.857 0 0 0 7 3.15Zm0 6.3a2.45 2.45 0 1 1 0-4.9 2.45 2.45 0 0 1 0 4.9Zm0 2.45a.7.7 0 0 0-.7.7v.7a.7.7 0 1 0 1.4 0v-.7a.7.7 0 0 0-.7-.7Z"/></svg>