<svg width="38" height="38" fill="none" xmlns="http://www.w3.org/2000/svg"><circle cx="19" cy="19" r="19" fill="#F7F8FA"/><path d="M21.97 19.567a4.797 4.797 0 0 0 1.647-2.419 4.772 4.772 0 0 0-.07-2.92 4.8 4.8 0 0 0-1.761-2.339 4.842 4.842 0 0 0-5.596 0 4.8 4.8 0 0 0-1.76 2.339 4.773 4.773 0 0 0-.07 2.92 4.797 4.797 0 0 0 1.645 2.42 8.034 8.034 0 0 0-3.41 2.582 7.971 7.971 0 0 0-1.59 3.958.8.8 0 0 0 .173.59.81.81 0 0 0 1.435-.414 6.384 6.384 0 0 1 2.105-4.055 6.451 6.451 0 0 1 4.286-1.628c1.582 0 3.108.58 4.287 1.628a6.385 6.385 0 0 1 2.105 4.055.798.798 0 0 0 .803.711h.089a.805.805 0 0 0 .707-.88 7.971 7.971 0 0 0-1.599-3.966 8.034 8.034 0 0 0-3.425-2.582ZM18.989 19a3.229 3.229 0 0 1-1.787-.54 3.201 3.201 0 0 1-1.184-1.434 3.182 3.182 0 0 1 .697-3.486 3.233 3.233 0 0 1 3.504-.693c.588.242 1.09.652 1.444 1.178a3.186 3.186 0 0 1-.4 4.038c-.603.6-1.421.937-2.274.937Z" fill="#979899"/></svg>