<svg width="13" height="13" fill="none" xmlns="http://www.w3.org/2000/svg"><path d="M13 5.293c-.068-.434-.442-.723-.953-.723h-.476c-.307-.037-.375.072-.375.325v3.763c0 .651-.612 1.339-1.327 1.484-2.246.542-4.492 1.049-6.738 1.592-.238.072-.51.072-.783.072-.102 0-.272-.072-.306-.18-.034-.073.068-.218.136-.29a3.65 3.65 0 0 1 .374-.217c.409-.145.851-.29 1.26-.435a275.278 275.278 0 0 0 5.002-1.773c.749-.253 1.157-.796 1.157-1.483.034-2.17 0-4.378 0-6.549 0-.362-.17-.651-.544-.796-.443-.18-.851-.036-1.225.145-2.383 1.194-4.73 2.388-7.113 3.582C.409 4.172 0 4.678 0 5.402v6.187c0 .108 0 .217.034.29C.272 12.565.884 13 1.702 13h9.971c.374 0 .68-.072.953-.326.34-.29.34-.687.34-1.049 0-1.78.034-6.332.034-6.332Zm-6.942-.651c.17-.47.544-.76 1.089-.832.374-.036.68.18.748.543.068.542-.544 1.194-1.19 1.194-.511 0-.818-.398-.647-.905Z" fill="#979899"/></svg>