<svg xmlns="http://www.w3.org/2000/svg" width="11" height="14" fill="none"><path fill="#fff" d="m3.341 4.68-.001.001-.001.002.002-.003Zm6.083-.118a.76.76 0 0 0-.14-.11.597.597 0 0 0-.855.26c-.21.43-.501.811-.855 1.125a5.667 5.667 0 0 0-.638-3.73A5.422 5.422 0 0 0 4.966.08a.595.595 0 0 0-.815.21.648.648 0 0 0-.096.3 4.566 4.566 0 0 1-.445 1.725A4.422 4.422 0 0 1 2.545 3.72l-.14.119A5.28 5.28 0 0 0 1.19 5.018 5.777 5.777 0 0 0 .117 7.384 5.883 5.883 0 0 0 .18 9.998a5.754 5.754 0 0 0 1.186 2.308 5.497 5.497 0 0 0 2.058 1.514.592.592 0 0 0 .571-.06.625.625 0 0 0 .199-.228.651.651 0 0 0 .041-.496 4.568 4.568 0 0 1-.116-1.633 5.585 5.585 0 0 0 2.635 2.542.59.59 0 0 0 .438.024 5.478 5.478 0 0 0 2.334-1.538 5.758 5.758 0 0 0 1.315-2.52 5.89 5.89 0 0 0-.037-2.865 5.745 5.745 0 0 0-1.38-2.484Zm-2.386 8.12a4.288 4.288 0 0 1-1.379-1.151 4.468 4.468 0 0 1-.807-1.634 5.818 5.818 0 0 1-.11-.61.642.642 0 0 0-.16-.349.606.606 0 0 0-.445-.198.595.595 0 0 0-.306.085.622.622 0 0 0-.223.232 5.829 5.829 0 0 0-.737 2.986 4.38 4.38 0 0 1-1.097-1.316 4.573 4.573 0 0 1-.39-3.384 4.48 4.48 0 0 1 .769-1.545c.267-.36.59-.672.954-.923a.46.46 0 0 0 .046-.035s.18-.155.187-.159A5.707 5.707 0 0 0 5.111 1.75a4.31 4.31 0 0 1 1.263 2.41 4.397 4.397 0 0 1-.415 2.71.652.652 0 0 0 .072.698.61.61 0 0 0 .296.201c.116.036.24.035.355-.002a4.804 4.804 0 0 0 2.36-1.701c.361.552.597 1.181.69 1.84.094.66.042 1.333-.15 1.97a4.469 4.469 0 0 1-.962 1.705c-.44.486-.981.863-1.582 1.103Z"/></svg>